# xmcd
#
# Track frame offsets:
#	150
#	13698
#	28325
#	42011
#	54868
#	67856
#	81132
#	94645
#	107088
#	121614
#	133115
#	148501
#	162782
#	175235
#	190404
#	204524
#	218507
#	234205
#
# Disc length: 3288 seconds
#
# Revision: 1
# Processed by: cddbd v1.5.2PL0 Copyright (c) Steve Scherf et al.
# Submitted via: audiograbber 1.83.01
#
DISCID=e40cd612
DTITLE=César and Alessandro - Casa Liberada
DYEAR=1900
DGENRE=SERTANEJO
TTITLE0=Festa do Cabíde
TTITLE1=Recaídas
TTITLE2=Onkotô
TTITLE3=Bala Perdida
TTITLE4=Casa Liberada
TTITLE5=Amor Pra Vida Inteira
TTITLE6=Pulei o Corguinho
TTITLE7=Vai Passar o Que Eu Passei
TTITLE8=Amor Sem Juízo
TTITLE9=Só Você
TTITLE10=Novembro Sem Você
TTITLE11=Porta na Cara
TTITLE12=Eu e Você
TTITLE13=Arco-íris
TTITLE14=Bola de Cristal
TTITLE15=Uma Vida é Pouco
TTITLE16=Fui Dando Porrada
TTITLE17=Bônus
EXTD=
EXTT0=
EXTT1=
EXTT2=
EXTT3=
EXTT4=
EXTT5=
EXTT6=
EXTT7=
EXTT8=
EXTT9=
EXTT10=
EXTT11=
EXTT12=
EXTT13=
EXTT14=
EXTT15=
EXTT16=
EXTT17=
PLAYORDER=
